<mxfile host="app.diagrams.net" agent="Mozilla/5.0 (Windows NT 10.0; Win64; x64) AppleWebKit/537.36 (KHTML, like Gecko) Chrome/109.0.0.0 Safari/537.36" version="26.2.14">
  <diagram name="Page-1" id="Wp68gShQd4WiBXDA3iRX">
    <mxGraphModel dx="872" dy="457" grid="1" gridSize="10" guides="1" tooltips="1" connect="1" arrows="1" fold="1" page="1" pageScale="1" pageWidth="850" pageHeight="1100" math="0" shadow="0">
      <root>
        <mxCell id="0" />
        <mxCell id="1" parent="0" />
        <mxCell id="Arcu1KYI9_M_B6ktZNkH-1" value="" style="rounded=0;whiteSpace=wrap;html=1;dashed=1;" parent="1" vertex="1">
          <mxGeometry x="90" y="90" width="120" height="310" as="geometry" />
        </mxCell>
        <mxCell id="Arcu1KYI9_M_B6ktZNkH-3" value="" style="rounded=1;whiteSpace=wrap;html=1;fillColor=#ffe6cc;strokeColor=#d79b00;fillStyle=hatch;" parent="1" vertex="1">
          <mxGeometry x="250" y="120" width="140" height="280" as="geometry" />
        </mxCell>
        <mxCell id="Arcu1KYI9_M_B6ktZNkH-4" value="&lt;b&gt;Bronze Layer&lt;/b&gt;" style="rounded=1;whiteSpace=wrap;html=1;fillColor=#ffe6cc;strokeColor=#d79b00;" parent="1" vertex="1">
          <mxGeometry x="260" y="80" width="120" height="30" as="geometry" />
        </mxCell>
        <mxCell id="6oo3rJZ5pvuWZXHwUODa-9" style="edgeStyle=orthogonalEdgeStyle;rounded=0;orthogonalLoop=1;jettySize=auto;html=1;entryX=0;entryY=0.5;entryDx=0;entryDy=0;" parent="1" source="Arcu1KYI9_M_B6ktZNkH-5" target="6oo3rJZ5pvuWZXHwUODa-3" edge="1">
          <mxGeometry relative="1" as="geometry" />
        </mxCell>
        <mxCell id="Arcu1KYI9_M_B6ktZNkH-16" style="edgeStyle=orthogonalEdgeStyle;rounded=0;orthogonalLoop=1;jettySize=auto;html=1;entryX=0;entryY=0.5;entryDx=0;entryDy=0;" parent="1" source="Arcu1KYI9_M_B6ktZNkH-7" target="Arcu1KYI9_M_B6ktZNkH-13" edge="1">
          <mxGeometry relative="1" as="geometry" />
        </mxCell>
        <mxCell id="Af0pcCFkaRukw8uIw-oT-19" style="edgeStyle=orthogonalEdgeStyle;rounded=0;orthogonalLoop=1;jettySize=auto;html=1;entryX=0;entryY=0.5;entryDx=0;entryDy=0;" edge="1" parent="1" source="Arcu1KYI9_M_B6ktZNkH-7" target="Arcu1KYI9_M_B6ktZNkH-5">
          <mxGeometry relative="1" as="geometry" />
        </mxCell>
        <mxCell id="Af0pcCFkaRukw8uIw-oT-20" style="edgeStyle=orthogonalEdgeStyle;rounded=0;orthogonalLoop=1;jettySize=auto;html=1;entryX=0;entryY=0.5;entryDx=0;entryDy=0;" edge="1" parent="1" source="Arcu1KYI9_M_B6ktZNkH-7" target="Arcu1KYI9_M_B6ktZNkH-12">
          <mxGeometry relative="1" as="geometry" />
        </mxCell>
        <mxCell id="Arcu1KYI9_M_B6ktZNkH-7" value="CRM" style="image;aspect=fixed;html=1;points=[];align=center;fontSize=12;image=img/lib/azure2/general/Folder_Blank.svg;" parent="1" vertex="1">
          <mxGeometry x="128.13" y="162" width="44.36" height="36" as="geometry" />
        </mxCell>
        <mxCell id="Arcu1KYI9_M_B6ktZNkH-6" value="" style="image;aspect=fixed;html=1;points=[];align=center;fontSize=12;image=img/lib/azure2/general/File.svg;" parent="1" vertex="1">
          <mxGeometry x="160" y="180" width="16.23" height="20" as="geometry" />
        </mxCell>
        <mxCell id="Arcu1KYI9_M_B6ktZNkH-21" style="edgeStyle=orthogonalEdgeStyle;rounded=0;orthogonalLoop=1;jettySize=auto;html=1;entryX=0;entryY=0.5;entryDx=0;entryDy=0;" parent="1" source="Arcu1KYI9_M_B6ktZNkH-8" target="Arcu1KYI9_M_B6ktZNkH-17" edge="1">
          <mxGeometry relative="1" as="geometry" />
        </mxCell>
        <mxCell id="Arcu1KYI9_M_B6ktZNkH-22" style="edgeStyle=orthogonalEdgeStyle;rounded=0;orthogonalLoop=1;jettySize=auto;html=1;" parent="1" source="Arcu1KYI9_M_B6ktZNkH-8" target="Arcu1KYI9_M_B6ktZNkH-18" edge="1">
          <mxGeometry relative="1" as="geometry" />
        </mxCell>
        <mxCell id="Arcu1KYI9_M_B6ktZNkH-23" style="edgeStyle=orthogonalEdgeStyle;rounded=0;orthogonalLoop=1;jettySize=auto;html=1;entryX=0;entryY=0.5;entryDx=0;entryDy=0;" parent="1" source="Arcu1KYI9_M_B6ktZNkH-8" target="Arcu1KYI9_M_B6ktZNkH-19" edge="1">
          <mxGeometry relative="1" as="geometry" />
        </mxCell>
        <mxCell id="Arcu1KYI9_M_B6ktZNkH-8" value="ERP" style="image;aspect=fixed;html=1;points=[];align=center;fontSize=12;image=img/lib/azure2/general/Folder_Blank.svg;" parent="1" vertex="1">
          <mxGeometry x="130" y="282" width="44.36" height="36" as="geometry" />
        </mxCell>
        <mxCell id="Arcu1KYI9_M_B6ktZNkH-9" value="" style="image;aspect=fixed;html=1;points=[];align=center;fontSize=12;image=img/lib/azure2/general/File.svg;" parent="1" vertex="1">
          <mxGeometry x="163.13" y="303" width="16.23" height="20" as="geometry" />
        </mxCell>
        <mxCell id="Arcu1KYI9_M_B6ktZNkH-10" value="Source" style="text;html=1;align=center;verticalAlign=middle;whiteSpace=wrap;rounded=0;fillColor=default;" parent="1" vertex="1">
          <mxGeometry x="122" y="77" width="60" height="30" as="geometry" />
        </mxCell>
        <mxCell id="6oo3rJZ5pvuWZXHwUODa-10" style="edgeStyle=orthogonalEdgeStyle;rounded=0;orthogonalLoop=1;jettySize=auto;html=1;exitX=1;exitY=0.5;exitDx=0;exitDy=0;entryX=0;entryY=0.5;entryDx=0;entryDy=0;" parent="1" source="Arcu1KYI9_M_B6ktZNkH-12" target="6oo3rJZ5pvuWZXHwUODa-4" edge="1">
          <mxGeometry relative="1" as="geometry" />
        </mxCell>
        <mxCell id="Arcu1KYI9_M_B6ktZNkH-12" value="&lt;font&gt;crm_prd_info&lt;/font&gt;" style="rounded=1;whiteSpace=wrap;html=1;fillColor=#ffe6cc;strokeColor=#d79b00;" parent="1" vertex="1">
          <mxGeometry x="260" y="198" width="120" height="20" as="geometry" />
        </mxCell>
        <mxCell id="6oo3rJZ5pvuWZXHwUODa-11" style="edgeStyle=orthogonalEdgeStyle;rounded=0;orthogonalLoop=1;jettySize=auto;html=1;entryX=0;entryY=0.5;entryDx=0;entryDy=0;" parent="1" source="Arcu1KYI9_M_B6ktZNkH-13" target="6oo3rJZ5pvuWZXHwUODa-5" edge="1">
          <mxGeometry relative="1" as="geometry" />
        </mxCell>
        <mxCell id="Arcu1KYI9_M_B6ktZNkH-13" value="&lt;font&gt;crm_sales_details&lt;/font&gt;" style="rounded=1;whiteSpace=wrap;html=1;fillColor=#ffe6cc;strokeColor=#d79b00;" parent="1" vertex="1">
          <mxGeometry x="260" y="140" width="120" height="20" as="geometry" />
        </mxCell>
        <mxCell id="6oo3rJZ5pvuWZXHwUODa-12" style="edgeStyle=orthogonalEdgeStyle;rounded=0;orthogonalLoop=1;jettySize=auto;html=1;exitX=1;exitY=0.5;exitDx=0;exitDy=0;entryX=0;entryY=0.5;entryDx=0;entryDy=0;" parent="1" source="Arcu1KYI9_M_B6ktZNkH-17" target="6oo3rJZ5pvuWZXHwUODa-6" edge="1">
          <mxGeometry relative="1" as="geometry" />
        </mxCell>
        <mxCell id="Arcu1KYI9_M_B6ktZNkH-17" value="&lt;font&gt;erp_cust_az12&lt;/font&gt;" style="rounded=1;whiteSpace=wrap;html=1;fillColor=#ffe6cc;strokeColor=#d79b00;" parent="1" vertex="1">
          <mxGeometry x="260" y="260" width="120" height="20" as="geometry" />
        </mxCell>
        <mxCell id="6oo3rJZ5pvuWZXHwUODa-13" style="edgeStyle=orthogonalEdgeStyle;rounded=0;orthogonalLoop=1;jettySize=auto;html=1;exitX=1;exitY=0.5;exitDx=0;exitDy=0;entryX=0;entryY=0.5;entryDx=0;entryDy=0;" parent="1" source="Arcu1KYI9_M_B6ktZNkH-18" target="6oo3rJZ5pvuWZXHwUODa-7" edge="1">
          <mxGeometry relative="1" as="geometry" />
        </mxCell>
        <mxCell id="Arcu1KYI9_M_B6ktZNkH-18" value="&lt;font&gt;erp_loc_a101&lt;/font&gt;" style="rounded=1;whiteSpace=wrap;html=1;fillColor=#ffe6cc;strokeColor=#d79b00;" parent="1" vertex="1">
          <mxGeometry x="260" y="290" width="120" height="20" as="geometry" />
        </mxCell>
        <mxCell id="6oo3rJZ5pvuWZXHwUODa-14" style="edgeStyle=orthogonalEdgeStyle;rounded=0;orthogonalLoop=1;jettySize=auto;html=1;exitX=1;exitY=0.5;exitDx=0;exitDy=0;" parent="1" source="Arcu1KYI9_M_B6ktZNkH-19" target="6oo3rJZ5pvuWZXHwUODa-8" edge="1">
          <mxGeometry relative="1" as="geometry" />
        </mxCell>
        <mxCell id="Arcu1KYI9_M_B6ktZNkH-19" value="&lt;font&gt;erp_px_cat_g1v2&lt;/font&gt;" style="rounded=1;whiteSpace=wrap;html=1;fillColor=#ffe6cc;strokeColor=#d79b00;" parent="1" vertex="1">
          <mxGeometry x="260" y="320" width="120" height="20" as="geometry" />
        </mxCell>
        <mxCell id="6oo3rJZ5pvuWZXHwUODa-1" value="" style="rounded=1;whiteSpace=wrap;html=1;fillColor=#f5f5f5;strokeColor=#666666;fillStyle=hatch;fontColor=#333333;" parent="1" vertex="1">
          <mxGeometry x="440" y="120" width="140" height="280" as="geometry" />
        </mxCell>
        <mxCell id="6oo3rJZ5pvuWZXHwUODa-2" value="&lt;b&gt;Silver Layer&lt;/b&gt;" style="rounded=1;whiteSpace=wrap;html=1;fillColor=#f5f5f5;strokeColor=#666666;fontColor=#333333;" parent="1" vertex="1">
          <mxGeometry x="450" y="80" width="120" height="30" as="geometry" />
        </mxCell>
        <mxCell id="6oo3rJZ5pvuWZXHwUODa-3" value="&lt;font&gt;crm_cust_info&lt;/font&gt;" style="rounded=1;whiteSpace=wrap;html=1;fillColor=#f5f5f5;strokeColor=#666666;fontColor=#333333;" parent="1" vertex="1">
          <mxGeometry x="450" y="170" width="120" height="20" as="geometry" />
        </mxCell>
        <mxCell id="6oo3rJZ5pvuWZXHwUODa-4" value="&lt;font&gt;crm_prd_info&lt;/font&gt;" style="rounded=1;whiteSpace=wrap;html=1;fillColor=#f5f5f5;strokeColor=#666666;fontColor=#333333;" parent="1" vertex="1">
          <mxGeometry x="450" y="198" width="120" height="20" as="geometry" />
        </mxCell>
        <mxCell id="6oo3rJZ5pvuWZXHwUODa-5" value="&lt;font&gt;crm_sales_details&lt;/font&gt;" style="rounded=1;whiteSpace=wrap;html=1;fillColor=#f5f5f5;strokeColor=#666666;fontColor=#333333;" parent="1" vertex="1">
          <mxGeometry x="450" y="140" width="120" height="20" as="geometry" />
        </mxCell>
        <mxCell id="6oo3rJZ5pvuWZXHwUODa-6" value="&lt;font&gt;erp_cust_az12&lt;/font&gt;" style="rounded=1;whiteSpace=wrap;html=1;fillColor=#f5f5f5;strokeColor=#666666;fontColor=#333333;" parent="1" vertex="1">
          <mxGeometry x="450" y="260" width="120" height="20" as="geometry" />
        </mxCell>
        <mxCell id="6oo3rJZ5pvuWZXHwUODa-7" value="&lt;font&gt;erp_loc_a101&lt;/font&gt;" style="rounded=1;whiteSpace=wrap;html=1;fillColor=#f5f5f5;strokeColor=#666666;fontColor=#333333;" parent="1" vertex="1">
          <mxGeometry x="450" y="290" width="120" height="20" as="geometry" />
        </mxCell>
        <mxCell id="6oo3rJZ5pvuWZXHwUODa-8" value="&lt;font&gt;erp_px_cat_g1v2&lt;/font&gt;" style="rounded=1;whiteSpace=wrap;html=1;fillColor=#f5f5f5;strokeColor=#666666;fontColor=#333333;" parent="1" vertex="1">
          <mxGeometry x="450" y="320" width="120" height="20" as="geometry" />
        </mxCell>
        <mxCell id="Af0pcCFkaRukw8uIw-oT-1" value="" style="rounded=1;whiteSpace=wrap;html=1;fillColor=#fff2cc;strokeColor=#d6b656;fillStyle=hatch;" vertex="1" parent="1">
          <mxGeometry x="630" y="117" width="140" height="280" as="geometry" />
        </mxCell>
        <mxCell id="Af0pcCFkaRukw8uIw-oT-2" value="&lt;b&gt;Gold Layer&lt;/b&gt;" style="rounded=1;whiteSpace=wrap;html=1;fillColor=#fff2cc;strokeColor=#d6b656;" vertex="1" parent="1">
          <mxGeometry x="640" y="77" width="120" height="30" as="geometry" />
        </mxCell>
        <mxCell id="Af0pcCFkaRukw8uIw-oT-3" value="&lt;font&gt;fact_sales&lt;/font&gt;" style="rounded=1;whiteSpace=wrap;html=1;fillColor=#fff2cc;strokeColor=#d6b656;" vertex="1" parent="1">
          <mxGeometry x="640" y="142" width="120" height="20" as="geometry" />
        </mxCell>
        <mxCell id="Af0pcCFkaRukw8uIw-oT-4" value="&lt;font&gt;dim_customers&lt;/font&gt;" style="rounded=1;whiteSpace=wrap;html=1;fillColor=#fff2cc;strokeColor=#d6b656;" vertex="1" parent="1">
          <mxGeometry x="640" y="190" width="120" height="20" as="geometry" />
        </mxCell>
        <mxCell id="Af0pcCFkaRukw8uIw-oT-5" value="&lt;font&gt;dim_products&lt;/font&gt;" style="rounded=1;whiteSpace=wrap;html=1;fillColor=#fff2cc;strokeColor=#d6b656;" vertex="1" parent="1">
          <mxGeometry x="640" y="262" width="120" height="20" as="geometry" />
        </mxCell>
        <mxCell id="Af0pcCFkaRukw8uIw-oT-11" value="" style="endArrow=classic;html=1;rounded=0;entryX=0;entryY=0.5;entryDx=0;entryDy=0;exitX=1;exitY=0.5;exitDx=0;exitDy=0;jumpStyle=gap;" edge="1" parent="1" source="6oo3rJZ5pvuWZXHwUODa-4" target="Af0pcCFkaRukw8uIw-oT-5">
          <mxGeometry width="50" height="50" relative="1" as="geometry">
            <mxPoint x="570" y="320" as="sourcePoint" />
            <mxPoint x="620" y="270" as="targetPoint" />
          </mxGeometry>
        </mxCell>
        <mxCell id="Af0pcCFkaRukw8uIw-oT-12" value="" style="endArrow=classic;html=1;rounded=0;entryX=0;entryY=0.5;entryDx=0;entryDy=0;exitX=1;exitY=0.5;exitDx=0;exitDy=0;jumpStyle=gap;" edge="1" parent="1" source="6oo3rJZ5pvuWZXHwUODa-8" target="Af0pcCFkaRukw8uIw-oT-5">
          <mxGeometry width="50" height="50" relative="1" as="geometry">
            <mxPoint x="600" y="270" as="sourcePoint" />
            <mxPoint x="670" y="362" as="targetPoint" />
          </mxGeometry>
        </mxCell>
        <mxCell id="Af0pcCFkaRukw8uIw-oT-13" value="" style="endArrow=classic;html=1;rounded=0;entryX=0;entryY=0.5;entryDx=0;entryDy=0;exitX=1;exitY=0.5;exitDx=0;exitDy=0;jumpStyle=gap;" edge="1" parent="1" source="6oo3rJZ5pvuWZXHwUODa-3" target="Af0pcCFkaRukw8uIw-oT-4">
          <mxGeometry width="50" height="50" relative="1" as="geometry">
            <mxPoint x="590" y="150" as="sourcePoint" />
            <mxPoint x="660" y="242" as="targetPoint" />
          </mxGeometry>
        </mxCell>
        <mxCell id="Af0pcCFkaRukw8uIw-oT-14" value="" style="endArrow=classic;html=1;rounded=0;entryX=0;entryY=0.5;entryDx=0;entryDy=0;exitX=1;exitY=0.5;exitDx=0;exitDy=0;jumpStyle=gap;" edge="1" parent="1" source="6oo3rJZ5pvuWZXHwUODa-6" target="Af0pcCFkaRukw8uIw-oT-4">
          <mxGeometry width="50" height="50" relative="1" as="geometry">
            <mxPoint x="600" y="359" as="sourcePoint" />
            <mxPoint x="670" y="301" as="targetPoint" />
          </mxGeometry>
        </mxCell>
        <mxCell id="Af0pcCFkaRukw8uIw-oT-15" value="" style="endArrow=classic;html=1;rounded=0;exitX=1;exitY=0.5;exitDx=0;exitDy=0;jumpStyle=gap;" edge="1" parent="1" source="6oo3rJZ5pvuWZXHwUODa-7">
          <mxGeometry width="50" height="50" relative="1" as="geometry">
            <mxPoint x="580" y="340" as="sourcePoint" />
            <mxPoint x="640" y="200" as="targetPoint" />
          </mxGeometry>
        </mxCell>
        <mxCell id="Af0pcCFkaRukw8uIw-oT-17" value="" style="endArrow=classic;html=1;rounded=0;entryX=0;entryY=0.5;entryDx=0;entryDy=0;exitX=1;exitY=0.5;exitDx=0;exitDy=0;jumpStyle=gap;" edge="1" parent="1" source="6oo3rJZ5pvuWZXHwUODa-5" target="Af0pcCFkaRukw8uIw-oT-3">
          <mxGeometry width="50" height="50" relative="1" as="geometry">
            <mxPoint x="580" y="190" as="sourcePoint" />
            <mxPoint x="650" y="282" as="targetPoint" />
          </mxGeometry>
        </mxCell>
        <mxCell id="Arcu1KYI9_M_B6ktZNkH-5" value="&lt;font&gt;crm_cust_info&lt;/font&gt;" style="rounded=1;whiteSpace=wrap;html=1;fillColor=#ffe6cc;strokeColor=#d79b00;" parent="1" vertex="1">
          <mxGeometry x="260" y="170" width="120" height="20" as="geometry" />
        </mxCell>
        <mxCell id="Af0pcCFkaRukw8uIw-oT-21" value="&lt;h1&gt;&lt;font style=&quot;font-size: 19px;&quot;&gt;Data Flow Diagram&lt;/font&gt;&lt;/h1&gt;" style="text;html=1;align=center;verticalAlign=middle;whiteSpace=wrap;rounded=0;" vertex="1" parent="1">
          <mxGeometry x="335" y="20" width="180" height="30" as="geometry" />
        </mxCell>
      </root>
    </mxGraphModel>
  </diagram>
</mxfile>
